<mxfile host="app.diagrams.net" modified="2021-09-25T02:39:23.364Z" agent="5.0 (Windows NT 10.0; WOW64) AppleWebKit/537.36 (KHTML, like Gecko) Chrome/91.0.4472.77 Safari/537.36" etag="G4R2nD9tbSLmxxWFzA0q" version="15.3.1" type="github">
  <diagram id="oA3eS2ro-VcBrTiEZLm-" name="第 1 页">
    <mxGraphModel dx="938" dy="575" grid="1" gridSize="10" guides="1" tooltips="1" connect="1" arrows="1" fold="1" page="1" pageScale="1" pageWidth="827" pageHeight="1169" math="0" shadow="0">
      <root>
        <mxCell id="0" />
        <mxCell id="1" parent="0" />
        <mxCell id="Nb2khe5gCZyhO0hgCq8m-3" value="源端口号（16位）" style="rounded=0;whiteSpace=wrap;html=1;" vertex="1" parent="1">
          <mxGeometry x="130" y="180" width="290" height="60" as="geometry" />
        </mxCell>
        <mxCell id="Nb2khe5gCZyhO0hgCq8m-4" value="目标端口号（16位）" style="rounded=0;whiteSpace=wrap;html=1;" vertex="1" parent="1">
          <mxGeometry x="420" y="180" width="300" height="60" as="geometry" />
        </mxCell>
        <mxCell id="Nb2khe5gCZyhO0hgCq8m-9" value="首部长度(4位)" style="rounded=0;whiteSpace=wrap;html=1;" vertex="1" parent="1">
          <mxGeometry x="130" y="360" width="120" height="60" as="geometry" />
        </mxCell>
        <mxCell id="Nb2khe5gCZyhO0hgCq8m-10" value="保留（6位）" style="rounded=0;whiteSpace=wrap;html=1;" vertex="1" parent="1">
          <mxGeometry x="250" y="360" width="110" height="60" as="geometry" />
        </mxCell>
        <mxCell id="Nb2khe5gCZyhO0hgCq8m-11" value="窗口大小（16位）" style="rounded=0;whiteSpace=wrap;html=1;" vertex="1" parent="1">
          <mxGeometry x="480" y="360" width="240" height="60" as="geometry" />
        </mxCell>
        <mxCell id="Nb2khe5gCZyhO0hgCq8m-14" value="校验和（16位）" style="rounded=0;whiteSpace=wrap;html=1;" vertex="1" parent="1">
          <mxGeometry x="130" y="420" width="300" height="60" as="geometry" />
        </mxCell>
        <mxCell id="Nb2khe5gCZyhO0hgCq8m-16" value="紧急指针（16位）" style="rounded=0;whiteSpace=wrap;html=1;" vertex="1" parent="1">
          <mxGeometry x="430" y="420" width="290" height="60" as="geometry" />
        </mxCell>
        <mxCell id="Nb2khe5gCZyhO0hgCq8m-17" value="选项" style="rounded=0;whiteSpace=wrap;html=1;" vertex="1" parent="1">
          <mxGeometry x="130" y="480" width="590" height="60" as="geometry" />
        </mxCell>
        <mxCell id="Nb2khe5gCZyhO0hgCq8m-18" value="数据（data）" style="rounded=0;whiteSpace=wrap;html=1;dashed=1;" vertex="1" parent="1">
          <mxGeometry x="130" y="540" width="590" height="70" as="geometry" />
        </mxCell>
        <mxCell id="Nb2khe5gCZyhO0hgCq8m-20" value="wireshark&lt;br&gt;相对序列号" style="rounded=0;whiteSpace=wrap;html=1;gradientColor=#97d077;fillColor=#d5e8d4;strokeColor=#82b366;" vertex="1" parent="1">
          <mxGeometry x="130" y="240" width="130" height="60" as="geometry" />
        </mxCell>
        <mxCell id="Nb2khe5gCZyhO0hgCq8m-21" value="序列号（32位）" style="rounded=0;whiteSpace=wrap;html=1;fillColor=#e3c800;strokeColor=#B09500;fontColor=#000000;" vertex="1" parent="1">
          <mxGeometry x="261" y="240" width="460" height="60" as="geometry" />
        </mxCell>
        <mxCell id="Nb2khe5gCZyhO0hgCq8m-22" value="wireshark&lt;br&gt;相对确认应答号" style="rounded=0;whiteSpace=wrap;html=1;gradientColor=#97d077;fillColor=#d5e8d4;strokeColor=#82b366;" vertex="1" parent="1">
          <mxGeometry x="130" y="300" width="130" height="60" as="geometry" />
        </mxCell>
        <mxCell id="Nb2khe5gCZyhO0hgCq8m-23" value="确认应答号（32位）" style="rounded=0;whiteSpace=wrap;html=1;fillColor=#6d8764;strokeColor=#3A5431;fontColor=#ffffff;" vertex="1" parent="1">
          <mxGeometry x="260" y="300" width="460" height="60" as="geometry" />
        </mxCell>
        <mxCell id="Nb2khe5gCZyhO0hgCq8m-26" value="U&lt;br&gt;R&lt;br&gt;G" style="rounded=0;html=1;sketch=0;fontColor=#5C5C5C;strokeColor=#006658;fillColor=#21C0A5;whiteSpace=wrap;" vertex="1" parent="1">
          <mxGeometry x="360" y="360" width="20" height="60" as="geometry" />
        </mxCell>
        <mxCell id="Nb2khe5gCZyhO0hgCq8m-27" value="A&lt;br&gt;C&lt;br&gt;K" style="rounded=0;whiteSpace=wrap;html=1;sketch=0;fontColor=#ffffff;strokeColor=#B20000;fillColor=#e51400;" vertex="1" parent="1">
          <mxGeometry x="380" y="360" width="20" height="60" as="geometry" />
        </mxCell>
        <mxCell id="Nb2khe5gCZyhO0hgCq8m-28" value="P&lt;br&gt;S&lt;br&gt;H" style="rounded=0;whiteSpace=wrap;html=1;sketch=0;fontColor=#5C5C5C;strokeColor=#006658;fillColor=#21C0A5;" vertex="1" parent="1">
          <mxGeometry x="400" y="360" width="20" height="60" as="geometry" />
        </mxCell>
        <mxCell id="Nb2khe5gCZyhO0hgCq8m-29" value="R&lt;br&gt;S&lt;br&gt;T" style="rounded=0;whiteSpace=wrap;html=1;sketch=0;fontColor=#ffffff;strokeColor=#B20000;fillColor=#e51400;" vertex="1" parent="1">
          <mxGeometry x="420" y="360" width="20" height="60" as="geometry" />
        </mxCell>
        <mxCell id="Nb2khe5gCZyhO0hgCq8m-30" value="S&lt;br&gt;Y&lt;br&gt;N" style="rounded=0;whiteSpace=wrap;html=1;sketch=0;fontColor=#ffffff;strokeColor=#B20000;fillColor=#e51400;" vertex="1" parent="1">
          <mxGeometry x="440" y="360" width="20" height="60" as="geometry" />
        </mxCell>
        <mxCell id="Nb2khe5gCZyhO0hgCq8m-31" value="F&lt;br&gt;I&lt;br&gt;N" style="rounded=0;whiteSpace=wrap;html=1;sketch=0;fontColor=#ffffff;strokeColor=#B20000;fillColor=#e51400;" vertex="1" parent="1">
          <mxGeometry x="460" y="360" width="20" height="60" as="geometry" />
        </mxCell>
        <mxCell id="Nb2khe5gCZyhO0hgCq8m-32" value="&lt;font style=&quot;font-size: 31px&quot;&gt;tcp头部格式&lt;/font&gt;" style="text;html=1;align=center;verticalAlign=middle;resizable=0;points=[];autosize=1;fillColor=#fad7ac;strokeColor=#b46504;" vertex="1" parent="1">
          <mxGeometry x="324" y="130" width="180" height="30" as="geometry" />
        </mxCell>
      </root>
    </mxGraphModel>
  </diagram>
</mxfile>
